# xmcd
#
# Track frame offsets:
# 150
# 23818
# 51380
# 81948
# 108495
# 114565
# 144655
# 179070
# 205780
# 241545
# 265188
# 296895
#
# Disc length: 4340 seconds
#
#
# Revision: 6
# Processed by: cddbd v1.5.1PL2 Copyright (c) Steve Scherf et al.
# Submitted via: FreeRIP 2.945 
#
DISCID=b210f20c
DTITLE=Natacha Atlas - Diaspora
DYEAR=1995
DGENRE=Electronic
TTITLE0=Iskanderia
TTITLE1=Leysh Nat'arak
TTITLE2=Diaspora
TTITLE3=Yalla Chant
TTITLE4=Alhambra Pt. 1
TTITLE5=Duden
TTITLE6=Feres
TTITLE7=Fun Does Not Exist
TTITLE8=Dub Yalil
TTITLE9=Iskanderia [Atlas Zamalek]
TTITLE10=Diaspora [Ballon Theatre Remix]
TTITLE11=Fun Does Not Exist [Dolmus Remix]
EXTD=
EXTT0=
EXTT1=
EXTT2=
EXTT3=
EXTT4=
EXTT5=
EXTT6=
EXTT7=
EXTT8=
EXTT9=
EXTT10=
EXTT11=
PLAYORDER=
